<svg width="29" height="19" viewBox="0 0 29 19" fill="none" xmlns="http://www.w3.org/2000/svg">
<path d="M4.57031 8.16797H6.30469C7.17969 8.16016 7.87109 7.93359 8.37891 7.48828C8.89453 7.04297 9.15234 6.39844 9.15234 5.55469C9.15234 4.74219 8.9375 4.11328 8.50781 3.66797C8.08594 3.21484 7.4375 2.98828 6.5625 2.98828C5.79688 2.98828 5.16797 3.21094 4.67578 3.65625C4.18359 4.09375 3.9375 4.66797 3.9375 5.37891H1.08984C1.08984 4.50391 1.32031 3.70703 1.78125 2.98828C2.25 2.26953 2.89844 1.71094 3.72656 1.3125C4.5625 0.90625 5.49609 0.703125 6.52734 0.703125C8.23047 0.703125 9.56641 1.13281 10.5352 1.99219C11.5117 2.84375 12 4.03125 12 5.55469C12 6.32031 11.7539 7.04297 11.2617 7.72266C10.7773 8.39453 10.1484 8.90234 9.375 9.24609C10.3125 9.56641 11.0234 10.0703 11.5078 10.7578C12 11.4453 12.2461 12.2656 12.2461 13.2188C12.2461 14.75 11.7188 15.9688 10.6641 16.875C9.61719 17.7812 8.23828 18.2344 6.52734 18.2344C4.88672 18.2344 3.54297 17.7969 2.49609 16.9219C1.44922 16.0469 0.925781 14.8828 0.925781 13.4297H3.77344C3.77344 14.1797 4.02344 14.7891 4.52344 15.2578C5.03125 15.7266 5.71094 15.9609 6.5625 15.9609C7.44531 15.9609 8.14062 15.7266 8.64844 15.2578C9.15625 14.7891 9.41016 14.1094 9.41016 13.2188C9.41016 12.3203 9.14453 11.6289 8.61328 11.1445C8.08203 10.6602 7.29297 10.418 6.24609 10.418H4.57031V8.16797ZM28.4531 15.7852C27.8359 16.5898 26.9805 17.1992 25.8867 17.6133C24.793 18.0273 23.5508 18.2344 22.1602 18.2344C20.7305 18.2344 19.4648 17.9102 18.3633 17.2617C17.2617 16.6133 16.4102 15.6875 15.8086 14.4844C15.2148 13.2734 14.9062 11.8633 14.8828 10.2539V8.91797C14.8828 6.33984 15.5 4.32812 16.7344 2.88281C17.9688 1.42969 19.6914 0.703125 21.9023 0.703125C23.8008 0.703125 25.3086 1.17188 26.4258 2.10938C27.543 3.04688 28.2148 4.39844 28.4414 6.16406H25.5352C25.207 4.10938 24.0156 3.08203 21.9609 3.08203C20.6328 3.08203 19.6211 3.5625 18.9258 4.52344C18.2383 5.47656 17.8828 6.87891 17.8594 8.73047V10.043C17.8594 11.8867 18.2461 13.3203 19.0195 14.3438C19.8008 15.3594 20.8828 15.8672 22.2656 15.8672C23.7812 15.8672 24.8594 15.5234 25.5 14.8359V11.4961H21.9844V9.24609H28.4531V15.7852Z" fill="#333333"/>
<path d="M4.57031 8.16797H6.30469C7.17969 8.16016 7.87109 7.93359 8.37891 7.48828C8.89453 7.04297 9.15234 6.39844 9.15234 5.55469C9.15234 4.74219 8.9375 4.11328 8.50781 3.66797C8.08594 3.21484 7.4375 2.98828 6.5625 2.98828C5.79688 2.98828 5.16797 3.21094 4.67578 3.65625C4.18359 4.09375 3.9375 4.66797 3.9375 5.37891H1.08984C1.08984 4.50391 1.32031 3.70703 1.78125 2.98828C2.25 2.26953 2.89844 1.71094 3.72656 1.3125C4.5625 0.90625 5.49609 0.703125 6.52734 0.703125C8.23047 0.703125 9.56641 1.13281 10.5352 1.99219C11.5117 2.84375 12 4.03125 12 5.55469C12 6.32031 11.7539 7.04297 11.2617 7.72266C10.7773 8.39453 10.1484 8.90234 9.375 9.24609C10.3125 9.56641 11.0234 10.0703 11.5078 10.7578C12 11.4453 12.2461 12.2656 12.2461 13.2188C12.2461 14.75 11.7188 15.9688 10.6641 16.875C9.61719 17.7812 8.23828 18.2344 6.52734 18.2344C4.88672 18.2344 3.54297 17.7969 2.49609 16.9219C1.44922 16.0469 0.925781 14.8828 0.925781 13.4297H3.77344C3.77344 14.1797 4.02344 14.7891 4.52344 15.2578C5.03125 15.7266 5.71094 15.9609 6.5625 15.9609C7.44531 15.9609 8.14062 15.7266 8.64844 15.2578C9.15625 14.7891 9.41016 14.1094 9.41016 13.2188C9.41016 12.3203 9.14453 11.6289 8.61328 11.1445C8.08203 10.6602 7.29297 10.418 6.24609 10.418H4.57031V8.16797ZM28.4531 15.7852C27.8359 16.5898 26.9805 17.1992 25.8867 17.6133C24.793 18.0273 23.5508 18.2344 22.1602 18.2344C20.7305 18.2344 19.4648 17.9102 18.3633 17.2617C17.2617 16.6133 16.4102 15.6875 15.8086 14.4844C15.2148 13.2734 14.9062 11.8633 14.8828 10.2539V8.91797C14.8828 6.33984 15.5 4.32812 16.7344 2.88281C17.9688 1.42969 19.6914 0.703125 21.9023 0.703125C23.8008 0.703125 25.3086 1.17188 26.4258 2.10938C27.543 3.04688 28.2148 4.39844 28.4414 6.16406H25.5352C25.207 4.10938 24.0156 3.08203 21.9609 3.08203C20.6328 3.08203 19.6211 3.5625 18.9258 4.52344C18.2383 5.47656 17.8828 6.87891 17.8594 8.73047V10.043C17.8594 11.8867 18.2461 13.3203 19.0195 14.3438C19.8008 15.3594 20.8828 15.8672 22.2656 15.8672C23.7812 15.8672 24.8594 15.5234 25.5 14.8359V11.4961H21.9844V9.24609H28.4531V15.7852Z" fill="url(#paint0_linear)"/>
<defs>
<linearGradient id="paint0_linear" x1="9.6875" y1="-0.275" x2="18.483" y2="21.5123" gradientUnits="userSpaceOnUse">
<stop stop-color="#47B7EE"/>
<stop offset="1" stop-color="#1B88BD"/>
</linearGradient>
</defs>
</svg>
