<svg width="29" height="19" viewBox="0 0 29 19" fill="none" xmlns="http://www.w3.org/2000/svg">
<path d="M10.9102 11.918H13.0312V14.2031H10.9102V18H8.0625V14.2031H0.691406L0.609375 12.4688L7.96875 0.9375H10.9102V11.918ZM3.59766 11.918H8.0625V4.79297L7.85156 5.16797L3.59766 11.918ZM28.4531 15.7852C27.8359 16.5898 26.9805 17.1992 25.8867 17.6133C24.793 18.0273 23.5508 18.2344 22.1602 18.2344C20.7305 18.2344 19.4648 17.9102 18.3633 17.2617C17.2617 16.6133 16.4102 15.6875 15.8086 14.4844C15.2148 13.2734 14.9062 11.8633 14.8828 10.2539V8.91797C14.8828 6.33984 15.5 4.32812 16.7344 2.88281C17.9688 1.42969 19.6914 0.703125 21.9023 0.703125C23.8008 0.703125 25.3086 1.17188 26.4258 2.10938C27.543 3.04688 28.2148 4.39844 28.4414 6.16406H25.5352C25.207 4.10938 24.0156 3.08203 21.9609 3.08203C20.6328 3.08203 19.6211 3.5625 18.9258 4.52344C18.2383 5.47656 17.8828 6.87891 17.8594 8.73047V10.043C17.8594 11.8867 18.2461 13.3203 19.0195 14.3438C19.8008 15.3594 20.8828 15.8672 22.2656 15.8672C23.7812 15.8672 24.8594 15.5234 25.5 14.8359V11.4961H21.9844V9.24609H28.4531V15.7852Z" fill="#333333"/>
<path d="M10.9102 11.918H13.0312V14.2031H10.9102V18H8.0625V14.2031H0.691406L0.609375 12.4688L7.96875 0.9375H10.9102V11.918ZM3.59766 11.918H8.0625V4.79297L7.85156 5.16797L3.59766 11.918ZM28.4531 15.7852C27.8359 16.5898 26.9805 17.1992 25.8867 17.6133C24.793 18.0273 23.5508 18.2344 22.1602 18.2344C20.7305 18.2344 19.4648 17.9102 18.3633 17.2617C17.2617 16.6133 16.4102 15.6875 15.8086 14.4844C15.2148 13.2734 14.9062 11.8633 14.8828 10.2539V8.91797C14.8828 6.33984 15.5 4.32812 16.7344 2.88281C17.9688 1.42969 19.6914 0.703125 21.9023 0.703125C23.8008 0.703125 25.3086 1.17188 26.4258 2.10938C27.543 3.04688 28.2148 4.39844 28.4414 6.16406H25.5352C25.207 4.10938 24.0156 3.08203 21.9609 3.08203C20.6328 3.08203 19.6211 3.5625 18.9258 4.52344C18.2383 5.47656 17.8828 6.87891 17.8594 8.73047V10.043C17.8594 11.8867 18.2461 13.3203 19.0195 14.3438C19.8008 15.3594 20.8828 15.8672 22.2656 15.8672C23.7812 15.8672 24.8594 15.5234 25.5 14.8359V11.4961H21.9844V9.24609H28.4531V15.7852Z" fill="url(#paint0_linear)"/>
<defs>
<linearGradient id="paint0_linear" x1="9.6875" y1="-0.275" x2="18.483" y2="21.5123" gradientUnits="userSpaceOnUse">
<stop stop-color="#47B7EE"/>
<stop offset="1" stop-color="#1B88BD"/>
</linearGradient>
</defs>
</svg>
