<svg width="16" height="16" viewBox="0 0 16 16" fill="none" xmlns="http://www.w3.org/2000/svg">
<path d="M16 10L16 2C16 1.44775 15.5523 1 15 1L12 1L12 11L15 11C15.5523 11 16 10.5523 16 10Z" fill="#DC6060"/>
<path d="M1.8468 10.0002L4.8009 10.0002C5.0592 10.0002 5.18859 10.1726 5.23205 10.2468C5.27551 10.3205 5.3634 10.5173 5.2384 10.7429L4.1969 12.6184C3.96838 13.029 3.94494 13.5119 4.13196 13.9431C4.31897 14.3747 4.68811 14.6877 5.14466 14.8015L5.87903 14.9851C6.05774 15.03 6.2472 14.9729 6.37171 14.8347L10.359 10.405C10.7726 9.94453 11.0001 9.35078 11.0001 8.73262L11.0001 3.5002C11.0001 2.12178 9.87854 1.0002 8.50012 1.0002L3.526 1.00069C2.40295 1.00069 1.41125 1.75703 1.11487 2.83956L0.0474898 7.738C0.0162398 7.87423 0.000126496 8.01388 0.000126484 8.15352C0.000126395 9.17159 0.828741 10.0002 1.84681 10.0002L1.8468 10.0002Z" fill="#DC6060"/>
</svg>
