<svg width="14" height="14" viewBox="0 0 14 14" fill="none" xmlns="http://www.w3.org/2000/svg">
<path d="M2.98047 14H11.1836C11.8621 14 12.4141 13.448 12.4141 12.7695V4.10156H9.54297C8.86446 4.10156 8.3125 3.5496 8.3125 2.87109V0H2.98047C2.30196 0 1.75 0.551961 1.75 1.23047V12.7695C1.75 13.448 2.30196 14 2.98047 14ZM4.62109 5.76953H9.54297C9.76968 5.76953 9.95312 5.95298 9.95312 6.17969C9.95312 6.40639 9.76968 6.58984 9.54297 6.58984H4.62109C4.39439 6.58984 4.21094 6.40639 4.21094 6.17969C4.21094 5.95298 4.39439 5.76953 4.62109 5.76953ZM4.62109 7.41016H9.54297C9.76968 7.41016 9.95312 7.59361 9.95312 7.82031C9.95312 8.04702 9.76968 8.23047 9.54297 8.23047H4.62109C4.39439 8.23047 4.21094 8.04702 4.21094 7.82031C4.21094 7.59361 4.39439 7.41016 4.62109 7.41016ZM4.62109 9.05078H9.54297C9.76968 9.05078 9.95312 9.23423 9.95312 9.46094C9.95312 9.68764 9.76968 9.87109 9.54297 9.87109H4.62109C4.39439 9.87109 4.21094 9.68764 4.21094 9.46094C4.21094 9.23423 4.39439 9.05078 4.62109 9.05078ZM4.62109 10.6914H7.90234C8.12905 10.6914 8.3125 10.8749 8.3125 11.1016C8.3125 11.3283 8.12905 11.5117 7.90234 11.5117H4.62109C4.39439 11.5117 4.21094 11.3283 4.21094 11.1016C4.21094 10.8749 4.39439 10.6914 4.62109 10.6914Z" fill="black"/>
<path d="M2.98047 14H11.1836C11.8621 14 12.4141 13.448 12.4141 12.7695V4.10156H9.54297C8.86446 4.10156 8.3125 3.5496 8.3125 2.87109V0H2.98047C2.30196 0 1.75 0.551961 1.75 1.23047V12.7695C1.75 13.448 2.30196 14 2.98047 14ZM4.62109 5.76953H9.54297C9.76968 5.76953 9.95312 5.95298 9.95312 6.17969C9.95312 6.40639 9.76968 6.58984 9.54297 6.58984H4.62109C4.39439 6.58984 4.21094 6.40639 4.21094 6.17969C4.21094 5.95298 4.39439 5.76953 4.62109 5.76953ZM4.62109 7.41016H9.54297C9.76968 7.41016 9.95312 7.59361 9.95312 7.82031C9.95312 8.04702 9.76968 8.23047 9.54297 8.23047H4.62109C4.39439 8.23047 4.21094 8.04702 4.21094 7.82031C4.21094 7.59361 4.39439 7.41016 4.62109 7.41016ZM4.62109 9.05078H9.54297C9.76968 9.05078 9.95312 9.23423 9.95312 9.46094C9.95312 9.68764 9.76968 9.87109 9.54297 9.87109H4.62109C4.39439 9.87109 4.21094 9.68764 4.21094 9.46094C4.21094 9.23423 4.39439 9.05078 4.62109 9.05078ZM4.62109 10.6914H7.90234C8.12905 10.6914 8.3125 10.8749 8.3125 11.1016C8.3125 11.3283 8.12905 11.5117 7.90234 11.5117H4.62109C4.39439 11.5117 4.21094 11.3283 4.21094 11.1016C4.21094 10.8749 4.39439 10.6914 4.62109 10.6914Z" fill="url(#paint0_linear)"/>
<path d="M9.46094 3.28116H12.0917L9.05078 0.240234V2.871C9.05078 3.0973 9.23464 3.28116 9.46094 3.28116Z" fill="black"/>
<path d="M9.46094 3.28116H12.0917L9.05078 0.240234V2.871C9.05078 3.0973 9.23464 3.28116 9.46094 3.28116Z" fill="url(#paint1_linear)"/>
<defs>
<linearGradient id="paint0_linear" x1="5.08252" y1="1.05" x2="12.3774" y2="11.2622" gradientUnits="userSpaceOnUse">
<stop stop-color="#47B7EE"/>
<stop offset="1" stop-color="#1B88BD"/>
</linearGradient>
<linearGradient id="paint1_linear" x1="10.0011" y1="0.468304" x2="11.4075" y2="3.05309" gradientUnits="userSpaceOnUse">
<stop stop-color="#47B7EE"/>
<stop offset="1" stop-color="#1B88BD"/>
</linearGradient>
</defs>
</svg>
