<svg width="19" height="19" viewBox="0 0 19 19" fill="none" xmlns="http://www.w3.org/2000/svg">
<path d="M9.97943 1C5.27402 1 1.41488 4.59509 1 9.18179H8.33943V6.72724C8.33943 6.39675 8.53944 6.09817 8.84531 5.97128C9.15207 5.84453 9.50464 5.9148 9.73918 6.14881L13.0193 9.42164C13.3401 9.7415 13.3401 10.2585 13.0193 10.5785L9.73918 13.8512C9.50464 14.0852 9.15207 14.1556 8.84531 14.0287C8.53944 13.902 8.33943 13.6033 8.33943 13.2728V10.8182H1C1.41488 15.4049 5.27402 19 9.97943 19C14.9613 19 19 14.9705 19 10.0001C19 5.02955 14.9613 1 9.97943 1V1Z" fill="#33A8E0"/>
<path d="M9.97943 1C5.27402 1 1.41488 4.59509 1 9.18179H8.33943V6.72724C8.33943 6.39675 8.53944 6.09817 8.84531 5.97128C9.15207 5.84453 9.50464 5.9148 9.73918 6.14881L13.0193 9.42164C13.3401 9.7415 13.3401 10.2585 13.0193 10.5785L9.73918 13.8512C9.50464 14.0852 9.15207 14.1556 8.84531 14.0287C8.53944 13.902 8.33943 13.6033 8.33943 13.2728V10.8182H1C1.41488 15.4049 5.27402 19 9.97943 19C14.9613 19 19 14.9705 19 10.0001C19 5.02955 14.9613 1 9.97943 1V1Z" fill="url(#paint0_linear)"/>
<defs>
<linearGradient id="paint0_linear" x1="6.625" y1="2.35" x2="14.95" y2="17.65" gradientUnits="userSpaceOnUse">
<stop stop-color="#47B7EE"/>
<stop offset="1" stop-color="#1B88BD"/>
</linearGradient>
</defs>
</svg>
