<svg width="12" height="12" viewBox="0 0 12 12" fill="none" xmlns="http://www.w3.org/2000/svg">
<path d="M0 4.5V10.5C0 10.9142 0.33577 11.25 0.75 11.25H3V3.75H0.75C0.33577 3.75 0 4.08577 0 4.5Z" fill="white"/>
<path d="M10.615 4.49983H8.39942C8.20569 4.49983 8.10865 4.37055 8.07605 4.31489C8.04346 4.25959 7.97754 4.11201 8.07129 3.94282L8.85242 2.5362C9.0238 2.22822 9.04138 1.86603 8.90112 1.54267C8.76086 1.21894 8.48401 0.984197 8.1416 0.89887L7.59082 0.761175C7.45678 0.727483 7.31469 0.77033 7.22131 0.873968L4.23083 4.19624C3.92065 4.54157 3.75 4.98689 3.75 5.45051V9.37482C3.75 10.4086 4.59119 11.2498 5.625 11.2498L9.35559 11.2495C10.1979 11.2495 10.9417 10.6822 11.1639 9.8703L11.9645 6.19647C11.9879 6.0943 12 5.98956 12 5.88483C12 5.12127 11.3785 4.49982 10.615 4.49982L10.615 4.49983Z" fill="white"/>
</svg>
