<svg width="16" height="16" viewBox="0 0 16 16" fill="none" xmlns="http://www.w3.org/2000/svg">
<path d="M0 6V14C0 14.5522 0.447693 15 1 15H4V5H1C0.447693 5 0 5.44769 0 6Z" fill="#7FB885"/>
<path d="M14.1532 5.99981H11.1991C10.9408 5.99981 10.8114 5.82745 10.7679 5.75323C10.7245 5.6795 10.6366 5.48272 10.7616 5.25713L11.8031 3.38164C12.0316 2.971 12.0551 2.48809 11.868 2.05693C11.681 1.62529 11.3119 1.3123 10.8553 1.19853L10.121 1.01494C9.94226 0.970019 9.7528 1.02715 9.62829 1.16533L5.64099 5.59502C5.22742 6.05547 4.99988 6.64922 4.99988 7.26738V12.4998C4.99988 13.8782 6.12146 14.9998 7.49988 14.9998L12.474 14.9993C13.597 14.9993 14.5887 14.243 14.8851 13.1604L15.9525 8.262C15.9838 8.12577 15.9999 7.98612 15.9999 7.84648C15.9999 6.82841 15.1713 5.9998 14.1532 5.9998L14.1532 5.99981Z" fill="#7FB885"/>
</svg>
