<svg width="16" height="15" viewBox="0 0 16 15" fill="none" xmlns="http://www.w3.org/2000/svg">
<path d="M15.8608 3.79023C15.7363 3.63797 15.5452 3.54898 15.3429 3.54898H2.83262L2.64666 1.57124C2.61624 1.24782 2.33231 1 1.99218 1H0.657104C0.294195 1 0 1.28086 0 1.62731C0 1.97377 0.294195 2.25462 0.657104 2.25462H1.39143L2.11168 9.91498C2.11184 9.924 2.11137 9.93287 2.1119 9.94195C2.11337 9.96603 2.11666 9.98956 2.12085 10.0127L2.1472 10.2928C2.1477 10.2981 2.14826 10.3034 2.14892 10.3086C2.22877 10.9691 2.58233 11.5414 3.09358 11.928C2.82868 12.251 2.67016 12.6571 2.67016 13.0981C2.67016 14.1468 3.56385 15 4.66231 15C5.7608 15 6.65449 14.1468 6.65449 13.0981C6.65449 12.871 6.61241 12.653 6.53556 12.4509H10.132C10.0551 12.653 10.013 12.871 10.013 13.0981C10.013 14.1468 10.9067 15 12.0052 15C13.1037 15 13.9974 14.1468 13.9974 13.0981C13.9974 12.0495 13.1037 11.1963 12.0052 11.1963H4.66675C4.1676 11.1963 3.73263 10.9088 3.54489 10.4899L14.0463 9.90073C14.333 9.88465 14.5755 9.69264 14.6452 9.42666L15.9804 4.3284C16.0294 4.14104 15.9853 3.94251 15.8608 3.79023Z" fill="#33A7E0"/>
<path d="M15.8608 3.79023C15.7363 3.63797 15.5452 3.54898 15.3429 3.54898H2.83262L2.64666 1.57124C2.61624 1.24782 2.33231 1 1.99218 1H0.657104C0.294195 1 0 1.28086 0 1.62731C0 1.97377 0.294195 2.25462 0.657104 2.25462H1.39143L2.11168 9.91498C2.11184 9.924 2.11137 9.93287 2.1119 9.94195C2.11337 9.96603 2.11666 9.98956 2.12085 10.0127L2.1472 10.2928C2.1477 10.2981 2.14826 10.3034 2.14892 10.3086C2.22877 10.9691 2.58233 11.5414 3.09358 11.928C2.82868 12.251 2.67016 12.6571 2.67016 13.0981C2.67016 14.1468 3.56385 15 4.66231 15C5.7608 15 6.65449 14.1468 6.65449 13.0981C6.65449 12.871 6.61241 12.653 6.53556 12.4509H10.132C10.0551 12.653 10.013 12.871 10.013 13.0981C10.013 14.1468 10.9067 15 12.0052 15C13.1037 15 13.9974 14.1468 13.9974 13.0981C13.9974 12.0495 13.1037 11.1963 12.0052 11.1963H4.66675C4.1676 11.1963 3.73263 10.9088 3.54489 10.4899L14.0463 9.90073C14.333 9.88465 14.5755 9.69264 14.6452 9.42666L15.9804 4.3284C16.0294 4.14104 15.9853 3.94251 15.8608 3.79023Z" fill="url(#paint0_linear)"/>
<defs>
<linearGradient id="paint0_linear" x1="5" y1="2.05" x2="10.9861" y2="14.6232" gradientUnits="userSpaceOnUse">
<stop stop-color="#47B7EE"/>
<stop offset="1" stop-color="#1B88BD"/>
</linearGradient>
</defs>
</svg>
