<svg width="16" height="16" viewBox="0 0 16 16" fill="none" xmlns="http://www.w3.org/2000/svg">
<g clip-path="url(#clip0)">
<path d="M15.9769 6.16419C15.9218 5.99448 15.7752 5.87079 15.5986 5.84516L10.6385 5.12439L8.42025 0.62981C8.34132 0.469811 8.17835 0.36853 7.99994 0.36853C7.82151 0.36853 7.65857 0.469811 7.5796 0.62981L5.36123 5.12439L0.401255 5.84516C0.224725 5.87079 0.0780063 5.99448 0.0228816 6.16416C-0.0322745 6.33388 0.0137253 6.52016 0.141506 6.64469L3.73049 10.1432L2.88337 15.0833C2.85318 15.2592 2.92549 15.4369 3.06984 15.5418C3.15149 15.6011 3.24821 15.6313 3.3454 15.6313C3.42002 15.6313 3.4949 15.6135 3.56346 15.5774L7.99991 13.245L12.4362 15.5774C12.5941 15.6604 12.7855 15.6466 12.9298 15.5418C13.0742 15.4369 13.1465 15.2591 13.1164 15.0833L12.269 10.1432L15.8583 6.64466C15.9861 6.52016 16.0321 6.33388 15.9769 6.16419Z" fill="#FFD42B"/>
</g>
<defs>
<clipPath id="clip0">
<rect width="16" height="16" fill="white"/>
</clipPath>
</defs>
</svg>
