<svg width="20" height="20" viewBox="0 0 20 20" fill="none" xmlns="http://www.w3.org/2000/svg">
<path d="M10.0001 19.9001C15.4677 19.9001 19.9001 15.4677 19.9001 10.0001C19.9001 4.53248 15.4677 0.100098 10.0001 0.100098C4.53248 0.100098 0.100098 4.53248 0.100098 10.0001C0.100098 15.4677 4.53248 19.9001 10.0001 19.9001Z" fill="url(#paint0_linear)"/>
<path fill-rule="evenodd" clip-rule="evenodd" d="M10.3245 12.3659C9.94323 12.7373 9.56527 13.1025 9.19083 13.4705C9.05993 13.5995 8.91275 13.6707 8.72487 13.6608C8.59661 13.654 8.52489 13.5977 8.48551 13.476C8.19863 12.5857 7.90757 11.6976 7.62223 10.8063C7.59451 10.7199 7.55359 10.6779 7.46603 10.6508C6.79019 10.4444 6.11567 10.2332 5.44225 10.0192C5.33863 9.98618 5.23413 9.94306 5.14459 9.88212C5.00621 9.7884 4.98597 9.6355 5.11005 9.5255C5.22467 9.42408 5.36151 9.33564 5.50363 9.27932C6.32973 8.95196 7.16023 8.63516 7.98941 8.3155C10.0937 7.50304 12.198 6.69124 14.3025 5.87878C14.7027 5.72412 15.0103 5.94192 14.9687 6.37466C14.9421 6.65142 14.8704 6.92378 14.8125 7.19702C14.3556 9.35456 13.8982 11.5123 13.4388 13.6694C13.3297 14.1816 12.97 14.3153 12.5485 14.0045C11.8425 13.4842 11.1372 12.9621 10.4316 12.4409C10.398 12.4165 10.363 12.393 10.3245 12.3659ZM8.73983 13.0211C8.74775 13.0189 8.75567 13.0167 8.76359 13.0147C8.76799 12.9945 8.77437 12.9747 8.77613 12.9546C8.82145 12.4656 8.86941 11.9767 8.90879 11.4868C8.91759 11.3777 8.95499 11.3002 9.03705 11.2268C9.68781 10.6449 10.3346 10.0592 10.9827 9.4749C11.7002 8.82788 12.4178 8.18152 13.1326 7.53186C13.1768 7.49182 13.1953 7.42362 13.2256 7.36818C13.1583 7.36092 13.0862 7.33386 13.025 7.3497C12.9416 7.37126 12.8626 7.41966 12.7883 7.46652C11.2049 8.46378 9.62291 9.4628 8.03847 10.4581C7.94893 10.5144 7.93221 10.5621 7.96631 10.6605C8.08313 10.996 8.18939 11.3346 8.29961 11.6725C8.44635 12.1222 8.59309 12.5716 8.73983 13.0211Z" fill="#3D3D3D"/>
<defs>
<linearGradient id="paint0_linear" x1="6.2876" y1="1.5851" x2="15.4451" y2="18.4151" gradientUnits="userSpaceOnUse">
<stop stop-color="#47B7EE"/>
<stop offset="1" stop-color="#1B88BD"/>
</linearGradient>
</defs>
</svg>
