<svg width="16" height="15" viewBox="0 0 16 15" fill="none" xmlns="http://www.w3.org/2000/svg">
<path d="M15.8608 2.97624C15.7363 2.81383 15.5452 2.71891 15.3429 2.71891H2.83262L2.64666 0.609326C2.61624 0.26434 2.33231 0 1.99218 0H0.657104C0.294195 0 0 0.299581 0 0.669133C0 1.03869 0.294195 1.33827 0.657104 1.33827H1.39143L2.11168 9.50931C2.11184 9.51893 2.11137 9.52839 2.1119 9.53808C2.11337 9.56376 2.11666 9.58887 2.12085 9.6136L2.1472 9.91235C2.1477 9.91799 2.14826 9.92363 2.14892 9.9292C2.22877 10.6337 2.58233 11.2441 3.09358 11.6565C2.82868 12.001 2.67016 12.4342 2.67016 12.9047C2.67016 14.0233 3.56385 14.9333 4.66231 14.9333C5.7608 14.9333 6.65449 14.0233 6.65449 12.9047C6.65449 12.6624 6.61241 12.4299 6.53556 12.2143H10.132C10.0551 12.4299 10.013 12.6624 10.013 12.9047C10.013 14.0233 10.9067 14.9333 12.0052 14.9333C13.1037 14.9333 13.9974 14.0233 13.9974 12.9047C13.9974 11.7861 13.1037 10.876 12.0052 10.876H4.66675C4.16761 10.876 3.73263 10.5694 3.54489 10.1226L14.0463 9.49411C14.333 9.47696 14.5755 9.27215 14.6452 8.98843L15.9804 3.55029C16.0294 3.35045 15.9853 3.13868 15.8608 2.97624Z" fill="white"/>
</svg>
