<svg width="16" height="16" viewBox="0 0 16 16" fill="none" xmlns="http://www.w3.org/2000/svg">
<path d="M8.61342 9.53355C8.61342 9.02537 9.02537 8.61342 9.53355 8.61342H10.147C10.6551 8.61342 11.0671 9.02537 11.0671 9.53355V10.147C11.0671 10.6551 10.6551 11.0671 10.147 11.0671H9.53355C9.02537 11.0671 8.61342 10.6551 8.61342 10.147V9.53355Z" fill="url(#paint0_linear)"/>
<path d="M15.9744 9.53355C15.9744 9.02537 15.5625 8.61342 15.0543 8.61342H14.4409C13.9327 8.61342 13.5208 9.02537 13.5208 9.53355V10.147C13.5208 10.6551 13.9327 11.0671 14.4409 11.0671H15.0543C15.5625 11.0671 15.9744 10.6551 15.9744 10.147V9.53355Z" fill="url(#paint1_linear)"/>
<path d="M11.0671 11.9872C11.0671 11.479 11.479 11.0671 11.9872 11.0671H12.6006C13.1088 11.0671 13.5208 11.479 13.5208 11.9872V12.6006C13.5208 13.1088 13.1088 13.5208 12.6006 13.5208H11.9872C11.479 13.5208 11.0671 13.1088 11.0671 12.6006V11.9872Z" fill="url(#paint2_linear)"/>
<path d="M13.5208 14.4409C13.5208 13.9327 13.9327 13.5208 14.4409 13.5208H15.0543C15.5625 13.5208 15.9744 13.9327 15.9744 14.4409V15.0543C15.9744 15.5625 15.5625 15.9744 15.0543 15.9744H14.4409C13.9327 15.9744 13.5208 15.5625 13.5208 15.0543V14.4409Z" fill="url(#paint3_linear)"/>
<path d="M11.0671 14.4409C11.0671 13.9327 10.6551 13.5208 10.147 13.5208H9.53355C9.02537 13.5208 8.61342 13.9327 8.61342 14.4409V15.0543C8.61342 15.5625 9.02537 15.9744 9.53355 15.9744H10.147C10.6551 15.9744 11.0671 15.5625 11.0671 15.0543V14.4409Z" fill="url(#paint4_linear)"/>
<path fill-rule="evenodd" clip-rule="evenodd" d="M4.91054 8.5671C4.59597 8.54493 4.21098 8.54494 3.74222 8.54494H3.69666C3.2279 8.54494 2.84291 8.54493 2.52834 8.5671C2.20269 8.59004 1.9046 8.63902 1.61966 8.76136C0.988188 9.03248 0.485539 9.53671 0.215505 10.169C0.0937271 10.4541 0.0449483 10.7524 0.0220832 11.0786C-1.01763e-05 11.3938 -5.53001e-06 11.7797 1.82892e-07 12.2498V12.2952C-5.53001e-06 12.7653 -1.01763e-05 13.1511 0.0220832 13.4663C0.0449483 13.7926 0.093727 14.0909 0.215505 14.376C0.485539 15.0082 0.98819 15.5125 1.61966 15.7836C1.9046 15.9059 2.20268 15.9549 2.52834 15.9778C2.8429 16 3.22788 16 3.69662 16H3.74226C4.211 16 4.59598 16 4.91054 15.9778C5.2362 15.9549 5.53428 15.9059 5.81922 15.7836C6.45069 15.5125 6.95334 15.0082 7.22338 14.376C7.34515 14.0909 7.39393 13.7926 7.4168 13.4663C7.43889 13.1511 7.43889 12.7653 7.43888 12.2952V12.2498C7.43889 11.7797 7.43889 11.3938 7.4168 11.0786C7.39393 10.7524 7.34515 10.4541 7.22338 10.169C6.95334 9.53671 6.45069 9.03248 5.81922 8.76136C5.53428 8.63902 5.2362 8.59004 4.91054 8.5671ZM3.39936 11.0671C2.89119 11.0671 2.47923 11.479 2.47923 11.9872V12.6006C2.47923 13.1088 2.89119 13.5208 3.39936 13.5208H4.01278C4.52095 13.5208 4.93291 13.1088 4.93291 12.6006V11.9872C4.93291 11.479 4.52095 11.0671 4.01278 11.0671H3.39936Z" fill="url(#paint5_linear)"/>
<path fill-rule="evenodd" clip-rule="evenodd" d="M4.91054 0.0221535C4.59598 -1.03254e-05 4.21099 -5.6028e-06 3.74225 1.86272e-07H3.69663C3.22789 -5.6028e-06 2.8429 -1.03254e-05 2.52834 0.0221535C2.20269 0.0450998 1.9046 0.0940739 1.61966 0.216414C0.988188 0.487535 0.485539 0.991767 0.215505 1.62401C0.0937271 1.90914 0.0449483 2.20744 0.0220832 2.53366C-1.01763e-05 2.84886 -5.53001e-06 3.23471 1.82892e-07 3.70481V3.75024C-5.53001e-06 4.22035 -1.01763e-05 4.6062 0.0220832 4.9214C0.0449483 5.24761 0.0937271 5.54592 0.215505 5.83105C0.485539 6.46329 0.988189 6.96752 1.61966 7.23864C1.9046 7.36098 2.20269 7.40996 2.52834 7.4329C2.84291 7.45507 3.2279 7.45506 3.69666 7.45506H3.74222C4.21098 7.45506 4.59597 7.45507 4.91054 7.4329C5.2362 7.40996 5.53428 7.36098 5.81922 7.23864C6.45069 6.96752 6.95334 6.46329 7.22338 5.83105C7.34515 5.54592 7.39393 5.24761 7.4168 4.9214C7.43889 4.60619 7.43889 4.22034 7.43888 3.75022V3.70483C7.43889 3.23472 7.43889 2.84886 7.4168 2.53366C7.39393 2.20744 7.34515 1.90914 7.22338 1.62401C6.95334 0.991768 6.45069 0.487535 5.81922 0.216414C5.53428 0.0940739 5.2362 0.0450998 4.91054 0.0221535ZM3.39936 2.47923C2.89119 2.47923 2.47923 2.89119 2.47923 3.39936V4.01278C2.47923 4.52095 2.89119 4.93291 3.39936 4.93291H4.01278C4.52095 4.93291 4.93291 4.52095 4.93291 4.01278V3.39936C4.93291 2.89119 4.52095 2.47923 4.01278 2.47923H3.39936Z" fill="url(#paint6_linear)"/>
<path fill-rule="evenodd" clip-rule="evenodd" d="M13.4717 0.0221535C13.1571 -1.03254e-05 12.7721 -5.6028e-06 12.3034 1.86272e-07H12.2578C11.789 -5.6028e-06 11.404 -1.03254e-05 11.0895 0.0221535C10.7638 0.0450998 10.4657 0.0940739 10.1808 0.216414C9.54931 0.487535 9.04666 0.991768 8.77662 1.62401C8.65485 1.90914 8.60607 2.20744 8.5832 2.53366C8.56111 2.84886 8.56111 3.23472 8.56112 3.70483V3.75022C8.56111 4.22034 8.56111 4.60619 8.5832 4.9214C8.60607 5.24761 8.65485 5.54592 8.77662 5.83105C9.04666 6.46329 9.54931 6.96752 10.1808 7.23864C10.4657 7.36098 10.7638 7.40996 11.0895 7.4329C11.404 7.45507 11.789 7.45506 12.2578 7.45506H12.3033C12.7721 7.45506 13.1571 7.45507 13.4717 7.4329C13.7973 7.40996 14.0954 7.36098 14.3803 7.23864C15.0118 6.96752 15.5145 6.46329 15.7845 5.83105C15.9063 5.54592 15.9551 5.24761 15.9779 4.9214C16 4.60618 16 4.22032 16 3.75019V3.70487C16 3.23474 16 2.84887 15.9779 2.53366C15.9551 2.20744 15.9063 1.90914 15.7845 1.62401C15.5145 0.991768 15.0118 0.487536 14.3803 0.216414C14.0954 0.0940739 13.7973 0.0450998 13.4717 0.0221535ZM11.9872 2.47923C11.479 2.47923 11.0671 2.89119 11.0671 3.39936V4.01278C11.0671 4.52095 11.479 4.93291 11.9872 4.93291H12.6006C13.1088 4.93291 13.5208 4.52095 13.5208 4.01278V3.39936C13.5208 2.89119 13.1088 2.47923 12.6006 2.47923H11.9872Z" fill="url(#paint7_linear)"/>
<defs>
<linearGradient id="paint0_linear" x1="8" y1="0" x2="8" y2="16" gradientUnits="userSpaceOnUse">
<stop stop-color="#47B7EE"/>
<stop offset="1" stop-color="#1B88BD"/>
</linearGradient>
<linearGradient id="paint1_linear" x1="8" y1="0" x2="8" y2="16" gradientUnits="userSpaceOnUse">
<stop stop-color="#47B7EE"/>
<stop offset="1" stop-color="#1B88BD"/>
</linearGradient>
<linearGradient id="paint2_linear" x1="8" y1="0" x2="8" y2="16" gradientUnits="userSpaceOnUse">
<stop stop-color="#47B7EE"/>
<stop offset="1" stop-color="#1B88BD"/>
</linearGradient>
<linearGradient id="paint3_linear" x1="8" y1="0" x2="8" y2="16" gradientUnits="userSpaceOnUse">
<stop stop-color="#47B7EE"/>
<stop offset="1" stop-color="#1B88BD"/>
</linearGradient>
<linearGradient id="paint4_linear" x1="8" y1="0" x2="8" y2="16" gradientUnits="userSpaceOnUse">
<stop stop-color="#47B7EE"/>
<stop offset="1" stop-color="#1B88BD"/>
</linearGradient>
<linearGradient id="paint5_linear" x1="8" y1="0" x2="8" y2="16" gradientUnits="userSpaceOnUse">
<stop stop-color="#47B7EE"/>
<stop offset="1" stop-color="#1B88BD"/>
</linearGradient>
<linearGradient id="paint6_linear" x1="8" y1="0" x2="8" y2="16" gradientUnits="userSpaceOnUse">
<stop stop-color="#47B7EE"/>
<stop offset="1" stop-color="#1B88BD"/>
</linearGradient>
<linearGradient id="paint7_linear" x1="8" y1="0" x2="8" y2="16" gradientUnits="userSpaceOnUse">
<stop stop-color="#47B7EE"/>
<stop offset="1" stop-color="#1B88BD"/>
</linearGradient>
</defs>
</svg>
